# xmcd
#
# Track frame offsets: 
#        150
#        18245
#        38332
#        54970
#        76997
#        97467
#        119335
#        141400
#        160127
#        177070
#
# Disc length: 2507 seconds
#
# Revision: 2
# Processed by: cddbd v1.5.2PL0 Copyright (c) Steve Scherf et al.
# Submitted via: ExactAudioCopy v0.95b4
#
DISCID=7809c90a
DTITLE=Steve Young - No Place To Fall {2001 Release}
DYEAR=1977
DGENRE=Crossover
TTITLE0=No Place To Fall
TTITLE1=Montgomery In The Rain
TTITLE2=Dreamer
TTITLE3=Always Loving You
TTITLE4=Drift Away
TTITLE5=7 Bridges Road
TTITLE6=I Closed My Heart's Door
TTITLE7=Don't Think Twice, It's All Right
TTITLE8=I Can't Sleep
TTITLE9=I've Got The Same Old Blues
EXTD=
EXTT0=
EXTT1=
EXTT2=
EXTT3=
EXTT4=
EXTT5=
EXTT6=
EXTT7=
EXTT8=
EXTT9=
PLAYORDER=
